<svg width="577" height="646" viewBox="0 0 577 646" fill="none" xmlns="http://www.w3.org/2000/svg">
<g id="Frame 20">
<path id="Vector" d="M429.113 0.01725C462.957 -0.85415 461.513 31.4728 461.411 55.2948L498.851 55.2708C549.415 55.2428 576.663 65.6408 576.687 121.621L576.755 581.445C576.939 618.855 557.799 644.993 518.717 645.363L93.085 645.411L51.663 645.593C13.423 645.575 0.144969 613.423 0.110969 581.025L0.0029672 117.633C-0.357033 64.6888 32.077 55.2428 77.717 55.2628L115.369 55.2948C115.295 40.2308 112.501 21.7848 123.485 10.1036C135.331 -2.49475 154.781 -3.11136 167.339 8.75204C179.837 20.5588 176.801 39.5528 176.721 55.2948H399.747C399.651 31.6888 396.743 2.81605 429.113 0.01725ZM186.347 129.909C189.413 120.011 183.719 105.891 176.721 98.7368C176.849 112.697 178.797 129.279 167.917 139.581C146.401 159.951 114.655 142.509 114.713 114.527C114.721 110.527 115.685 102.277 115.369 98.7368C90.255 116.877 105.487 164.055 141.007 168.549C164.485 171.519 186.969 154.305 186.347 129.909ZM399.747 100.093C391.017 109.561 388.065 120.397 389.405 133.115C394.429 170.447 441.571 182.859 464.295 152.823C475.249 138.347 475.135 113.123 461.411 100.093C461.365 115.023 462.907 128.301 451.457 139.825C439.055 152.307 420.877 151.453 408.725 139.261C397.333 127.833 400.423 114.659 399.747 100.093Z" fill="#111827"/>
<path id="Vector_2" d="M12.9509 212.435H563.741V488.877L501.717 488.863C487.807 488.861 469.567 487.929 456.237 490.631C448.423 492.217 441.925 498.335 435.009 501.491L434.331 501.795C428.475 513.549 421.783 519.487 421.639 533.723L421.519 632.361L84.7109 632.357C72.7769 632.369 57.6349 633.293 46.3509 631.915C7.50089 627.173 12.9389 583.641 12.9609 555.381L12.9509 212.435Z" fill="#E6E6E6"/>
<path id="Vector_3" d="M439.429 228.607C446.085 228.013 488.465 228.641 490.295 234.401C494.935 248.995 491.439 273.997 488.795 289.313C472.443 384.097 395.273 430.099 302.975 412.565L302.945 480.291C302.947 488.025 303.877 511.551 301.941 519.723C301.287 522.481 290.755 526.073 290.657 516.439L290.615 437.853C249.821 437.183 214.531 423.897 190.415 389.359C185.359 382.117 182.011 374.441 177.225 367.271L176.721 366.521C173.315 371.075 168.847 373.773 164.409 377.563C64.151 425.041 21.713 274.607 112.231 251.221C152.949 240.165 189.231 269.801 199.147 307.849C242.349 313.885 260.727 314.925 290.615 353.975C300.225 273.985 363.999 231.763 439.429 228.607Z" fill="#111827"/>
<path id="Vector_4" d="M439.429 241.227C448.759 239.865 470.039 241.701 479.555 243.527C480.481 300.457 461.631 356.037 410.045 386.959C384.039 402.549 342.111 409.545 312.471 401.413C331.981 367.367 358.961 342.101 389.405 317.987C394.625 314.101 408.997 306.295 407.967 300.147C405.737 286.823 388.585 302.653 384.223 305.873C354.653 327.699 319.763 360.839 302.975 393.755C295.865 304.815 349.763 242.985 439.429 241.227Z" fill="#22C55E" fill-opacity="0.733333"/>
<path id="Vector_5" d="M125.621 262.361C152.473 256.993 180.081 283.179 186.347 307.849C169.239 308.035 169.549 309.543 169.781 327.369C169.899 336.435 171.317 345.023 172.505 353.975C163.963 364.915 151.109 370.983 137.651 373.199C61.669 382.495 52.863 265.439 125.621 262.361Z" fill="#22C55E" fill-opacity="0.733333"/>
<path id="Vector_6" d="M160.197 289.735C188.883 290.541 120.241 345.089 120.189 345.105C117.973 345.853 104.483 330.919 100.283 326.659C97.467 323.963 94.585 321.585 93.085 317.987C94.401 312.545 94.155 311.611 99.477 309.413C105.259 312.501 115.657 324.593 120.633 329.869C126.009 323.707 155.531 292.179 160.197 289.735Z" fill="#111827"/>
<path id="Vector_7" d="M186.347 320.309C223.557 318.201 263.949 331.349 283.063 365.809C292.857 385.277 290.671 387.185 290.615 409.879C280.621 391.219 267.779 377.081 251.979 363.165C241.673 354.087 234.661 363.635 240.175 369.617C256.799 383.893 276.641 403.945 283.253 425.345C230.505 424.867 189.897 385.099 182.247 333.331C181.167 326.025 179.097 321.245 186.347 320.309Z" fill="#22C55E" fill-opacity="0.733333"/>
<path id="Vector_8" d="M124.979 430.181C162.301 427.929 194.399 456.319 196.725 493.637C199.051 530.955 170.723 563.111 133.411 565.511C95.993 567.917 63.727 539.493 61.395 502.069C59.063 464.647 87.551 432.437 124.979 430.181Z" fill="#111827"/>
<path id="Vector_9" d="M128.915 442.785C159.155 442.691 183.797 467.035 184.071 497.275C184.345 527.515 160.147 552.301 129.909 552.755C99.4169 553.211 74.3769 528.765 74.1009 498.271C73.8249 467.775 98.4189 442.881 128.915 442.785Z" fill="#22C55E" fill-opacity="0.733333"/>
<path id="Vector_10" d="M160.197 474.239C163.359 474.975 167.021 478.355 166.007 481.923C164.315 487.877 129.999 523.097 120.633 528.491C115.969 525.633 102.805 512.131 99.477 507.591C93.825 502.865 85.1269 494.605 98.2169 492.217C102.711 491.397 117.517 509.359 120.633 513.081C128.489 504.167 150.687 479.701 160.197 474.239Z" fill="#111827"/>
<path id="Vector_11" d="M218.569 550.339C228.545 549.921 241.457 550.323 251.717 550.321L360.563 550.323C367.649 550.325 375.767 550.029 382.771 550.651C390.215 551.311 389.833 559.839 383.453 563.249C375.073 563.775 359.693 563.263 350.875 563.263L240.295 563.259C234.061 563.257 224.805 563.713 218.813 562.863C211.647 561.845 212.361 553.957 218.569 550.339Z" fill="#111827"/>
<path id="Vector_12" d="M461.411 68.239L507.013 68.163C561.769 67.947 563.757 89.339 563.745 138.081L563.741 199.343H12.951V136.033C12.905 103.973 12.397 73.105 53.015 68.239H115.369C114.865 73.401 114.955 76.397 115.369 81.541C69.003 108.831 92.213 182.867 146.781 181.355C208.773 179.635 213.575 99.995 176.721 83.713V68.239H399.747V83.713C340.397 133.793 404.927 206.121 459.027 174.493C484.985 159.317 492.227 125.061 476.417 100.093C471.829 93.043 468.025 88.923 461.411 83.713C461.627 78.233 461.555 73.693 461.411 68.239Z" fill="#1F2937"/>
<path id="Vector_13" d="M563.741 510.699C566.221 525.373 563.377 564.077 563.921 581.225C565.443 629.241 534.423 632.391 495.833 632.381L443.129 632.361L442.477 632.067C443.871 629.725 452.813 620.929 455.409 618.317L534.259 539.467C542.739 531.019 554.911 518.169 563.741 510.699Z" fill="#DBDBDB" fill-opacity="0.592157"/>
<path id="Vector_14" d="M474.397 501.795H553.421C545.613 511.123 530.987 524.823 521.919 533.767L474.397 581.263C461.143 594.475 448.499 609.147 434.331 621.297C433.965 599.523 434.503 577.533 434.311 555.743C434.023 522.783 436.907 503.487 474.397 501.795Z" fill="#E6E6E6"/>
<path id="Vector_15" d="M431.225 12.9729C455.949 12.1049 449.139 51.4449 449.135 67.9849L449.109 100.259C449.085 115.763 450.855 133.887 431.225 136.819C404.277 132.569 411.759 98.6429 411.763 76.8009L411.787 48.6369C411.843 32.1069 409.443 14.5969 431.225 12.9729Z" fill="#DBDBDB" fill-opacity="0.592157"/>
<path id="Vector_16" d="M146.789 12.9729C153.831 13.5969 161.197 18.1029 163.119 25.2409C165.333 33.4629 164.981 106.185 164.077 117.345C163.197 128.197 157.495 133.977 146.789 136.819C137.503 135.655 128.201 128.443 127.741 118.539C126.503 91.9309 127.437 65.0569 127.321 38.4049C127.255 23.5609 130.267 14.8649 146.789 12.9729Z" fill="#DBDBDB" fill-opacity="0.592157"/>
</g>
</svg>
